<svg width="24" height="25" viewBox="0 0 24 25" fill="#151515" xmlns="http://www.w3.org/2000/svg">
<path d="M4.95 17.16C5.8226 17.16 6.53 16.4526 6.53 15.58C6.53 14.7074 5.8226 14 4.95 14C4.07739 14 3.37 14.7074 3.37 15.58C3.37 16.4526 4.07739 17.16 4.95 17.16Z" />
<path d="M18.43 17.16C19.3026 17.16 20.01 16.4526 20.01 15.58C20.01 14.7074 19.3026 14 18.43 14C17.5574 14 16.85 14.7074 16.85 15.58C16.85 16.4526 17.5574 17.16 18.43 17.16Z" />
<path d="M22.09 11.93C21.34 11.83 11.46 10.93 11.46 10.93C11.2931 10.4573 10.9927 10.0432 10.5951 9.73784C10.1974 9.43253 9.71978 9.24917 9.22 9.21001C8.05678 9.05583 6.88242 9.0023 5.71 9.05001C4.19 9.05001 3.87 11.29 3.87 11.29L1.55 12.41C1.42729 13.2983 1.24352 14.177 1 15.04L1.88 15.28C1.94416 14.4712 2.31792 13.7184 2.92341 13.1783C3.52889 12.6383 4.3194 12.3527 5.13024 12.381C5.94108 12.4094 6.70971 12.7495 7.27598 13.3306C7.84226 13.9116 8.1625 14.6887 8.17 15.5C8.16866 15.6977 8.15195 15.8949 8.12 16.09H15.35C15.3348 15.8936 15.3348 15.6964 15.35 15.5C15.35 14.6646 15.6819 13.8634 16.2726 13.2726C16.8634 12.6819 17.6646 12.35 18.5 12.35C19.3354 12.35 20.1366 12.6819 20.7274 13.2726C21.3181 13.8634 21.65 14.6646 21.65 15.5C21.6504 15.6982 21.6302 15.8959 21.59 16.09C22.31 16.09 23.02 14.89 23.02 14.89C22.94 14.66 23.33 12.09 22.09 11.93ZM9.7 11.29C9 11.29 7.47 11.13 7.47 11.13L7.15 9.77001L8.51 9.93001C8.83727 9.96184 9.14945 10.0832 9.41229 10.2808C9.67513 10.4783 9.87847 10.7445 10 11.05C10 11.05 10.18 11.3 9.7 11.29Z" />
</svg>
