<svg xmlns="http://www.w3.org/2000/svg" width="24" height="25" fill="#151515" viewBox="0 0 24 25"><path d="M19.0001 9.93C18.4323 9.63076 17.9789 9.15278 17.7101 8.57C17.4701 7.77 15.9501 7.85 15.9501 7.85C15.9501 7.85 16.9501 10.17 15.5501 11.62C14.9434 12.2209 14.124 12.558 13.2701 12.558C12.4161 12.558 11.5968 12.2209 10.9901 11.62C8.78006 9.5 7.74006 9.5 7.74006 9.5H3.49006C3.49006 9.5 4.69006 10.55 4.85006 11.19C5.01006 11.83 4.21006 12.5 2.77006 12.5C2.58802 12.4866 2.40523 12.5125 2.23413 12.5761C2.06304 12.6397 1.90766 12.7395 1.77859 12.8685C1.64952 12.9976 1.54979 13.153 1.48619 13.3241C1.4226 13.4952 1.39663 13.678 1.41006 13.86H22.6301C22.8775 13.7671 23.0925 13.6041 23.2487 13.391C23.405 13.1779 23.4958 12.9239 23.5101 12.66C23.5101 11.78 19.0001 9.93 19.0001 9.93Z"/><path d="M2.36998 16.74C2.36998 16.74 11.58 17.22 15.74 17.14C19.9 17.06 21.67 14.98 21.67 14.98H1.72998L2.36998 16.74Z"/></svg>