<svg xmlns="http://www.w3.org/2000/svg" width="24" height="25" fill="#151515" viewBox="0 0 24 25"><path d="M4.95998 17.39C5.91543 17.39 6.68998 16.6154 6.68998 15.66C6.68998 14.7045 5.91543 13.93 4.95998 13.93C4.00453 13.93 3.22998 14.7045 3.22998 15.66C3.22998 16.6154 4.00453 17.39 4.95998 17.39Z"/><path d="M18.59 17.39C19.5454 17.39 20.32 16.6154 20.32 15.66C20.32 14.7045 19.5454 13.93 18.59 13.93C17.6345 13.93 16.86 14.7045 16.86 15.66C16.86 16.6154 17.6345 17.39 18.59 17.39Z"/><path d="M23.36 13.5C23.3302 12.953 23.131 12.4288 22.79 12C21.6165 11.4996 20.402 11.1014 19.16 10.81C18.16 10.4 16.16 8.00001 15.25 7.56001C13.51 6.73001 2.99999 7.16001 2.11999 7.32001C1.24 7.48001 1.19 8.70001 1.19 8.70001C1.19 8.70001 0.619995 13.24 0.619995 14.5C0.619995 15.03 1.09 15.31 1.62 15.5C1.64121 14.646 2.00081 13.8354 2.61968 13.2466C3.23855 12.6577 4.066 12.3388 4.92 12.36C5.77399 12.3812 6.58458 12.7408 7.17345 13.3597C7.76231 13.9786 8.08121 14.806 8.06 15.66H15.32C15.32 14.806 15.6592 13.987 16.2631 13.3831C16.867 12.7793 17.686 12.44 18.54 12.44C19.394 12.44 20.213 12.7793 20.8169 13.3831C21.4207 13.987 21.76 14.806 21.76 15.66H22.53C23.6 15.66 23.36 14.32 23.36 13.5ZM16.92 10.75L11.26 10.62V7.83001L13.76 7.96001C14.2008 8.00635 14.6251 8.15347 15 8.39001C15.3 8.54001 17.1 10.39 17.3 10.6C17.5 10.81 16.92 10.75 16.92 10.75Z"/></svg>