<svg width="24" height="25" viewBox="0 0 24 25" fill="#151515" xmlns="http://www.w3.org/2000/svg">
<path d="M21.17 4.28H15.44C15.2755 4.28 15.1178 4.34532 15.0015 4.46159C14.8853 4.57787 14.82 4.73556 14.82 4.9V7.1C14.8201 7.28068 14.8845 7.45542 15.0018 7.59286C15.1191 7.73031 15.2815 7.82147 15.46 7.85L13 10.26C12.9455 10.3129 12.903 10.3769 12.8754 10.4476C12.8478 10.5183 12.8357 10.5942 12.84 10.67C12.8371 10.7442 12.8499 10.8181 12.8775 10.887C12.905 10.9559 12.9468 11.0182 13 11.07L15.34 13.38H10.75V8.38C10.75 8.23148 10.691 8.08904 10.5859 7.98402C10.4809 7.879 10.3385 7.82 10.19 7.82H4.99995C4.85317 7.82262 4.71329 7.88278 4.61042 7.98751C4.50756 8.09225 4.44993 8.23319 4.44995 8.38V13.97C4.43953 14.0463 4.43953 14.1237 4.44995 14.2V14.75H18.34C18.34 14.75 18.34 14.08 18.34 14.02C18.3509 13.9385 18.343 13.8556 18.317 13.7776C18.291 13.6997 18.2476 13.6286 18.19 13.57L15.25 10.63L18 7.86H19.78C20.12 7.86 20.4 7.24 20.4 7.24L21.35 4.48C21.3502 4.43025 21.3319 4.38219 21.2986 4.3452C21.2653 4.30822 21.2195 4.28497 21.17 4.28ZM9.55995 11.5C9.55995 11.5663 9.53361 11.6299 9.48673 11.6768C9.43985 11.7237 9.37626 11.75 9.30995 11.75H5.91995C5.8554 11.7474 5.79435 11.7199 5.74961 11.6733C5.70486 11.6267 5.6799 11.5646 5.67995 11.5V9.25C5.6799 9.18539 5.70486 9.12327 5.74961 9.07667C5.79435 9.03006 5.8554 9.00258 5.91995 9H9.55995V11.5Z" />
<path d="M18.72 16.91H4.22001C3.2756 16.91 2.51001 17.6756 2.51001 18.62V19.17C2.51001 20.1144 3.2756 20.88 4.22001 20.88H18.72C19.6644 20.88 20.43 20.1144 20.43 19.17V18.62C20.43 17.6756 19.6644 16.91 18.72 16.91Z" />
</svg>
