<svg xmlns="http://www.w3.org/2000/svg" width="24" height="25" fill="#151515" viewBox="0 0 24 25"><path d="M5.00994 18.91C6.0151 18.91 6.82994 18.0951 6.82994 17.09C6.82994 16.0848 6.0151 15.27 5.00994 15.27C4.00478 15.27 3.18994 16.0848 3.18994 17.09C3.18994 18.0951 4.00478 18.91 5.00994 18.91Z"/><path d="M18.93 18.91C19.9351 18.91 20.75 18.0951 20.75 17.09C20.75 16.0848 19.9351 15.27 18.93 15.27C17.9248 15.27 17.11 16.0848 17.11 17.09C17.11 18.0951 17.9248 18.91 18.93 18.91Z"/><path d="M22.2199 8.67999C22.2199 8.25564 22.0514 7.84867 21.7513 7.54862C21.4513 7.24856 21.0443 7.07999 20.62 7.07999H0.699951V15.02C0.701484 15.4122 0.845238 15.7905 1.10454 16.0847C1.36384 16.379 1.72107 16.5692 2.10995 16.62C2.22436 15.9335 2.57858 15.3099 3.1096 14.86C3.64062 14.4102 4.31401 14.1633 5.00995 14.1633C5.7059 14.1633 6.37928 14.4102 6.9103 14.86C7.44132 15.3099 7.79554 15.9335 7.90995 16.62H16C16.1144 15.9335 16.4686 15.3099 16.9996 14.86C17.5306 14.4102 18.204 14.1633 18.9 14.1633C19.5959 14.1633 20.2693 14.4102 20.8003 14.86C21.3313 15.3099 21.6855 15.9335 21.7999 16.62C22.2005 16.585 22.5735 16.4014 22.8455 16.1053C23.1176 15.8092 23.269 15.4221 23.27 15.02L22.2199 8.67999ZM6.90995 8.95999V11.65H2.37995V8.95999H6.90995ZM13.61 8.95999V11.65H9.07995V8.95999H13.61ZM19.93 11.65H16.22V8.95999H19.7999C20.0148 8.95999 20.2208 9.04533 20.3727 9.19723C20.5246 9.34913 20.61 9.55516 20.61 9.76999L20.74 10.84C20.74 11.0548 20.6546 11.2608 20.5027 11.4127C20.3508 11.5646 20.1448 11.65 19.93 11.65Z"/></svg>