<svg width="24" height="33" viewBox="0 0 24 33" fill="#151515" xmlns="http://www.w3.org/2000/svg">
<path d="M18.9586 20.3605C19.9077 20.1777 20.5289 19.2602 20.3461 18.3111C20.1634 17.3621 19.2459 16.7409 18.2968 16.9236C17.3477 17.1064 16.7265 18.0239 16.9093 18.973C17.092 19.922 18.0096 20.5432 18.9586 20.3605Z" />
<path d="M22.53 15.5C21.75 15.38 16.92 14.5 16.92 14.5C15.6502 13.4824 14.1925 12.7246 12.63 12.27C10.7413 12.0561 8.8378 12.0026 6.94002 12.11C5.38002 12.11 3.89002 14.42 3.89002 14.42L0.430021 15.1C0.213562 16.1671 0.272063 17.2717 0.600021 18.31L1.51002 18.56C1.57473 17.7259 1.95859 16.9489 2.58172 16.3907C3.20484 15.8325 4.01923 15.536 4.85539 15.5631C5.69155 15.5901 6.48507 15.9386 7.07081 16.5359C7.65654 17.1333 7.98937 17.9335 8.00002 18.77C8.01555 18.973 8.01555 19.177 8.00002 19.38H15.46C15.4192 19.1793 15.3991 18.9749 15.4 18.77C15.4 17.9081 15.7424 17.0814 16.3519 16.4719C16.9614 15.8624 17.7881 15.52 18.65 15.52C19.512 15.52 20.3386 15.8624 20.9481 16.4719C21.5576 17.0814 21.9 17.9081 21.9 18.77C21.899 18.9743 21.8822 19.1783 21.85 19.38C22.59 19.38 23.65 18.15 23.65 18.15C23.57 17.92 24.17 15.76 22.53 15.5ZM15 15.01C14.51 15.01 9.81002 14.85 9.81002 14.85L9.50002 13.04L12.14 13.2C13.3075 13.4945 14.4008 14.0292 15.35 14.77C15.35 14.77 15.52 15.01 15 15.01Z" />
<path d="M4.78003 20.39C5.74653 20.39 6.53003 19.6065 6.53003 18.64C6.53003 17.6735 5.74653 16.89 4.78003 16.89C3.81353 16.89 3.03003 17.6735 3.03003 18.64C3.03003 19.6065 3.81353 20.39 4.78003 20.39Z" />
<path d="M18.9586 20.3605C19.9077 20.1777 20.5289 19.2602 20.3461 18.3111C20.1634 17.3621 19.2459 16.7409 18.2968 16.9236C17.3477 17.1064 16.7265 18.0239 16.9093 18.973C17.092 19.922 18.0096 20.5432 18.9586 20.3605Z" />
</svg>
