<svg width="24" height="25" viewBox="0 0 24 25"  xmlns="http://www.w3.org/2000/svg" fill="#151515">
<path d="M4.11 19.06C6.10375 19.06 7.72 17.4437 7.72 15.45C7.72 13.4562 6.10375 11.84 4.11 11.84C2.11625 11.84 0.5 13.4562 0.5 15.45C0.5 17.4437 2.11625 19.06 4.11 19.06Z" />
<path d="M19.89 19.06C21.8838 19.06 23.5 17.4437 23.5 15.45C23.5 13.4562 21.8838 11.84 19.89 11.84C17.8963 11.84 16.28 13.4562 16.28 15.45C16.28 17.4437 17.8963 19.06 19.89 19.06Z" />
<path d="M17.4701 5.98999C17.4701 5.98999 20.2001 7.79999 20.4401 8.49999C20.7801 9.49999 20.5301 9.60999 19.9401 9.68999C19.3501 9.76999 13.9401 9.94999 13.9401 16.31H9.58006V14.22C9.57567 13.6616 9.71389 13.1114 9.98164 12.6214C10.2494 12.1314 10.6378 11.7179 11.1101 11.42C14.5001 9.46999 17.9001 9.88999 17.1101 8.86999C16.3201 7.84999 15.8201 6.62999 16.1801 6.15999C16.5401 5.68999 17.4701 5.98999 17.4701 5.98999Z" />
<path d="M8.47999 11.83C8.50189 11.863 8.53161 11.8901 8.5665 11.9088C8.6014 11.9275 8.64039 11.9373 8.67999 11.9373C8.7196 11.9373 8.75859 11.9275 8.79349 11.9088C8.82838 11.8901 8.8581 11.863 8.87999 11.83C9.11271 11.2318 9.53858 10.7285 10.09 10.4C11.7777 9.51452 13.6224 8.9676 15.52 8.79C15.032 8.37955 14.4619 8.07802 13.848 7.90557C13.234 7.73311 12.5904 7.69371 11.96 7.79C11.3096 7.78472 10.6722 7.97174 10.1278 8.32757C9.58333 8.68341 9.15619 9.19219 8.89999 9.79H7.36999C7.36999 9.79 5.99999 7.5 4.56999 7.5H1.17999C1.17999 7.5 0.499995 8.27 1.68999 8.78C2.87999 9.29 2.87999 10.14 4.82999 10.14C5.52643 10.1283 6.21649 10.2743 6.84856 10.5669C7.48063 10.8596 8.03835 11.2914 8.47999 11.83Z" />
</svg>
