<svg xmlns="http://www.w3.org/2000/svg" width="24" height="25" fill="#151515" viewBox="0 0 24 25"><path d="M13.5 11.35L12.63 6.49999C12.5895 6.27702 12.4743 6.07444 12.3036 5.92546C12.1328 5.77648 11.9165 5.68993 11.69 5.67999H4.93004C4.67358 5.69283 4.43189 5.80383 4.25504 5.98999C4.07818 6.17616 3.97972 6.42322 3.98004 6.67999V11.39H3.39004C2.92004 11.39 2.54004 12.3 2.54004 12.77V15.1C3.07749 14.0483 3.95144 13.2067 5.02266 12.7093C6.09388 12.2118 7.30075 12.0872 8.45102 12.3552C9.60129 12.6232 10.6288 13.2685 11.3698 14.1881C12.1108 15.1078 12.5228 16.249 12.54 17.43C12.54 17.54 12.54 17.64 12.54 17.74H14.4C14.6096 16.9916 15.0583 16.3324 15.6776 15.8629C16.297 15.3935 17.0529 15.1396 17.83 15.14C18.5838 15.1446 19.314 15.4025 19.9035 15.8723C20.4929 16.342 20.9073 16.9963 21.08 17.73C21.2887 17.71 21.4823 17.6128 21.6229 17.4574C21.7636 17.302 21.841 17.0996 21.84 16.89L21.66 12.73C21.66 12.26 21.46 11.88 20.99 11.88L13.5 11.35ZM11.16 10.75C10.4411 10.4988 9.69655 10.3278 8.94004 10.24H8.22004C8.14434 10.24 8.06939 10.2249 7.99957 10.1957C7.92976 10.1664 7.86647 10.1235 7.81341 10.0695C7.76035 10.0155 7.71857 9.95151 7.69052 9.88119C7.66247 9.81088 7.64871 9.73568 7.65004 9.65999V7.58999C7.64871 7.5143 7.66247 7.43911 7.69052 7.36879C7.71857 7.29848 7.76035 7.23445 7.81341 7.18046C7.86647 7.12647 7.92976 7.08359 7.99957 7.05432C8.06939 7.02505 8.14434 7.00998 8.22004 7.00999H10.81C10.8857 7.00998 10.9607 7.02505 11.0305 7.05432C11.1003 7.08359 11.1636 7.12647 11.2167 7.18046C11.2697 7.23445 11.3115 7.29848 11.3396 7.36879C11.3676 7.43911 11.3814 7.5143 11.38 7.58999L11.74 10.17C11.74 10.3238 11.6789 10.4713 11.5702 10.5801C11.4614 10.6889 11.3139 10.75 11.16 10.75Z"/><path d="M7.12999 20.71C8.93596 20.71 10.4 19.246 10.4 17.44C10.4 15.634 8.93596 14.17 7.12999 14.17C5.32401 14.17 3.85999 15.634 3.85999 17.44C3.85999 19.246 5.32401 20.71 7.12999 20.71Z"/><path d="M17.8901 20.71C18.9007 20.71 19.7201 19.8907 19.7201 18.88C19.7201 17.8693 18.9007 17.05 17.8901 17.05C16.8794 17.05 16.0601 17.8693 16.0601 18.88C16.0601 19.8907 16.8794 20.71 17.8901 20.71Z"/></svg>